<?xml version="1.0" encoding="UTF-8"?>
<svg id="Layer_2" data-name="Layer 2" xmlns="http://www.w3.org/2000/svg" viewBox="0 0 266.13 266.13">
  <defs>
    <style>
      .cls-1 {
        fill: #fff;
      }

      .cls-2 {
        fill: #cb2b36;
      }

      .cls-3 {
        fill: #0f173c;
      }
    </style>
  </defs>
  <g id="Layer_1-2" data-name="Layer 1">
    <g>
      <rect class="cls-3" width="266.13" height="266.13"/>
      <g>
        <path class="cls-1" d="M47.85,130.51s-3.29,3.15-8.98,3.15c-5.76,0-10.43-4.67-10.43-10.42s4.67-10.45,10.43-10.45c3.83,0,6.49,1.13,8.15,2.77l-3.61,2.84s-1.1-1.55-4.4-1.55-5.82,3.04-5.82,6.2,1.85,6.57,6.1,6.57c1.74,0,3.17-.59,4.25-1.29v-2.83h-4.56v-3.86h8.86v8.87h0Z"/>
        <polygon class="cls-1" points="54.15 129.27 54.15 113.19 49.75 113.19 49.75 133.25 50.54 133.25 54.15 133.25 64.24 133.25 64.24 129.27 54.15 129.27"/>
        <polygon class="cls-1" points="131.1 129.27 131.1 113.19 126.71 113.19 126.71 133.25 127.5 133.25 131.1 133.25 141.19 133.25 141.19 129.27 131.1 129.27"/>
        <path class="cls-1" d="M75,112.78c-5.95,0-10.76,4.49-10.76,10.42s4.82,10.43,10.76,10.43,10.76-4.5,10.76-10.43-4.81-10.42-10.76-10.42M74.94,129.58c-3.4,0-6.17-2.97-6.17-6.37s2.76-6.27,6.17-6.27,6.17,2.87,6.17,6.27-2.77,6.37-6.17,6.37"/>
        <path class="cls-1" d="M100.49,122.92c1.63-.87,2.76-2.57,2.76-4.55,0-2.86-2.32-5.18-5.19-5.18h-10.79v20.06h10.79c2.96,0,6.34-1.87,6.34-5.34,0-3.11-1.66-4.56-3.91-4.98M91.63,117.03h5.19c1.18,0,2.15.96,2.15,2.15s-.96,2.15-2.15,2.15h-5.19v-4.29ZM97.87,129.4h-6.24v-4.39h6.24c1.22,0,2.2.98,2.2,2.2s-.98,2.2-2.2,2.2"/>
        <path class="cls-1" d="M121.01,133.25h4.34l-8.57-20.26h-4.08l-8.56,20.26h4.34l1.88-4.45h8.77l1.88,4.45ZM112,124.87l2.74-6.46,2.74,6.46h-5.47Z"/>
        <polygon class="cls-1" points="189.09 115.13 189.09 113.11 176.24 113.11 176.24 133.26 189.09 133.26 189.09 131.36 178.27 131.36 178.27 124.18 187.86 124.18 187.86 122.15 178.27 122.15 178.27 115.13 189.09 115.13"/>
        <path class="cls-1" d="M199.14,133.39h-5.89v-20.28h5.89c5.69,0,9.82,4.26,9.82,10.14s-4.13,10.14-9.82,10.14M195.28,131.36h3.86c4.59,0,7.79-3.34,7.79-8.12s-3.27-8.12-7.79-8.12h-3.86v16.23Z"/>
        <rect class="cls-1" x="213.5" y="113.2" width="2.29" height="20.07"/>
        <polygon class="cls-1" points="168.81 113.11 162.18 123.92 155.69 113.11 153.55 113.11 153.55 133.25 155.57 133.25 155.57 116.84 162.17 127.83 168.94 116.78 168.94 133.25 170.96 133.25 170.96 113.11 168.81 113.11"/>
        <path class="cls-1" d="M221.63,133.39l2.12-5.34h9.67l2.1,5.34h2.18l-7.96-20.27h-2.23l-8.05,20.27h2.18ZM228.61,115.8l4.01,10.21h-8.07l4.05-10.21Z"/>
        <path class="cls-1" d="M95.26,160.42c-5.52,0-9.23-4.16-9.23-10.34s3.71-10.34,9.23-10.34c2.7,0,4.37.46,6.33,2.26l-1.37,1.49c-1.59-1.46-2.78-1.73-4.96-1.73-5.32,0-7.2,4.48-7.2,8.32s1.88,8.32,7.2,8.32c1.73,0,3.39-.5,4.81-1.44v-5.7h-5.39v-2.02h7.42v8.75l-.41.3c-1.86,1.4-4.09,2.14-6.43,2.14"/>
        <path class="cls-1" d="M108.92,159.96h-2.03v-20h8.11c3.35,0,6.08,2.72,6.08,6.07s-2.73,6.07-6.08,6.07h-6.08v7.85ZM108.92,150.09h6.08c2.24,0,4.05-1.81,4.05-4.05s-1.81-4.05-4.05-4.05h-6.08v8.1Z"/>
        <path class="cls-1" d="M133.67,160.42c-5.16,0-8.91-4.38-8.91-10.41s3.66-10.41,8.91-10.41,8.91,4.38,8.91,10.41-3.67,10.41-8.91,10.41M133.67,141.61c-4.75,0-6.88,4.21-6.88,8.39,0,4.86,2.89,8.39,6.88,8.39s6.88-3.45,6.88-8.39-2.83-8.39-6.88-8.39"/>
        <path class="cls-1" d="M168.88,159.96h-2.03v-20h7.07c3.55,0,6.44,2.88,6.44,6.44s-2.89,6.44-6.44,6.44h-5.05v7.13ZM168.88,150.8h5.05c2.43,0,4.42-1.97,4.42-4.41s-1.98-4.41-4.42-4.41h-5.05v8.82Z"/>
        <polygon class="cls-1" points="121.62 159.96 115.19 150.52 113.51 151.66 119.17 159.96 121.62 159.96"/>
        <path class="cls-2" d="M153.33,160.36c-3.77-.49-6.49-3.88-6.49-7.67v-44.95c0-1.11.91-2.02,2.03-2.02v46.99c0,2.84,2.08,5.38,4.91,5.67,3.25.31,6-2.24,6-5.42v-12.83h2.03v12.83c0,4.45-3.91,7.99-8.47,7.42"/>
      </g>
    </g>
  </g>
</svg>