<?xml version="1.0" encoding="UTF-8"?>
<svg id="Layer_2" data-name="Layer 2" xmlns="http://www.w3.org/2000/svg" viewBox="0 0 234.28 61.26">
  <defs>
    <style>
      .cls-1 {
        fill: #fff;
      }
    </style>
  </defs>
  <g id="Layer_1-2" data-name="Layer 1">
    <g>
      <path class="cls-1" d="M21.73,27.77s-3.69,3.52-10.05,3.52c-6.44-.01-11.67-5.22-11.67-11.67S5.23,7.92,11.67,7.92c4.29,0,7.27,1.27,9.12,3.11l-4.04,3.18s-1.24-1.73-4.92-1.73-6.51,3.4-6.51,6.95,2.08,7.35,6.83,7.35c1.95,0,3.55-.66,4.75-1.44v-3.17h-5.11v-4.32h9.92v9.93h.01Z"/>
      <polygon class="cls-1" points="28.78 26.38 28.78 8.37 23.86 8.37 23.86 30.83 24.74 30.83 28.78 30.83 40.08 30.83 40.08 26.38 28.78 26.38"/>
      <polygon class="cls-1" points="114.95 26.38 114.95 8.37 110.02 8.37 110.02 30.83 110.91 30.83 114.95 30.83 126.25 30.83 126.25 26.38 114.95 26.38"/>
      <path class="cls-1" d="M52.13,7.92c-6.66,0-12.05,5.03-12.05,11.67s5.4,11.68,12.05,11.68,12.05-5.04,12.05-11.68-5.39-11.67-12.05-11.67M52.06,26.73c-3.81,0-6.91-3.32-6.91-7.13s3.09-7.03,6.91-7.03,6.91,3.22,6.91,7.03-3.1,7.13-6.91,7.13"/>
      <path class="cls-1" d="M80.67,19.28c1.83-.97,3.09-2.88,3.09-5.1,0-3.21-2.6-5.8-5.81-5.8h-12.08v22.46h12.08c3.31,0,7.1-2.1,7.1-5.98,0-3.48-1.86-5.11-4.38-5.58M70.75,12.68h5.81c1.33,0,2.41,1.08,2.41,2.4s-1.08,2.4-2.41,2.4h-5.81v-4.8ZM77.74,26.53h-6.99v-4.92h6.99c1.36,0,2.46,1.1,2.46,2.46s-1.1,2.46-2.46,2.46"/>
      <path class="cls-1" d="M103.65,30.83h4.86l-9.6-22.69h-4.57l-9.59,22.69h4.86l2.11-4.99h9.82l2.11,4.99ZM93.56,21.45l3.06-7.23,3.06,7.23h-6.13Z"/>
      <polygon class="cls-1" points="179.87 10.55 179.87 8.28 165.49 8.28 165.49 30.84 179.87 30.84 179.87 28.73 167.76 28.73 167.76 20.68 178.5 20.68 178.5 18.41 167.76 18.41 167.76 10.55 179.87 10.55"/>
      <path class="cls-1" d="M191.13,30.99h-6.59V8.28h6.59c6.38,0,10.99,4.77,10.99,11.35s-4.63,11.35-10.99,11.35M186.8,28.73h4.32c5.14,0,8.72-3.74,8.72-9.09s-3.66-9.09-8.72-9.09h-4.32v18.18Z"/>
      <rect class="cls-1" x="207.2" y="8.39" width="2.56" height="22.47"/>
      <polygon class="cls-1" points="157.16 8.28 149.74 20.4 142.48 8.28 140.07 8.28 140.07 30.83 142.34 30.83 142.34 12.47 149.73 24.77 157.31 12.4 157.31 30.83 159.58 30.83 159.58 8.28 157.16 8.28"/>
      <path class="cls-1" d="M216.3,30.99l2.37-5.98h10.82l2.35,5.98h2.44l-8.92-22.7h-2.5l-9.01,22.7h2.44ZM224.12,11.3l4.49,11.43h-9.03l4.54-11.43Z"/>
      <path class="cls-1" d="M74.81,61.26c-6.18,0-10.34-4.66-10.34-11.58s4.15-11.58,10.34-11.58c3.03,0,4.89.51,7.09,2.53l-1.53,1.67c-1.78-1.63-3.11-1.94-5.56-1.94-5.96,0-8.07,5.02-8.07,9.31s2.11,9.31,8.07,9.31c1.94,0,3.8-.56,5.39-1.61v-6.38h-6.04v-2.27h8.3v9.8l-.45.34c-2.09,1.56-4.58,2.39-7.2,2.39"/>
      <path class="cls-1" d="M90.11,60.75h-2.27v-22.39h9.08c3.76,0,6.81,3.05,6.81,6.8s-3.05,6.8-6.81,6.8h-6.81v8.79ZM90.11,49.69h6.81c2.51,0,4.54-2.03,4.54-4.53s-2.03-4.53-4.54-4.53h-6.81v9.07Z"/>
      <path class="cls-1" d="M117.82,61.26c-5.77,0-9.97-4.91-9.97-11.66s4.1-11.66,9.97-11.66,9.97,4.91,9.97,11.66-4.11,11.66-9.97,11.66M117.82,40.2c-5.32,0-7.7,4.71-7.7,9.39,0,5.44,3.23,9.39,7.7,9.39s7.7-3.86,7.7-9.39-3.17-9.39-7.7-9.39"/>
      <path class="cls-1" d="M157.24,60.75h-2.27v-22.39h7.92c3.97,0,7.22,3.23,7.22,7.21s-3.23,7.21-7.22,7.21h-5.65v7.98ZM157.24,50.49h5.65c2.72,0,4.95-2.21,4.95-4.94s-2.21-4.94-4.95-4.94h-5.65v9.88Z"/>
      <polygon class="cls-1" points="104.33 60.75 97.12 50.18 95.25 51.46 101.58 60.75 104.33 60.75"/>
      <path class="cls-1" d="M139.84,61.19c-4.22-.54-7.27-4.34-7.27-8.59V2.27c0-1.25,1.02-2.27,2.27-2.27v52.61c0,3.18,2.33,6.03,5.5,6.35,3.64.35,6.72-2.5,6.72-6.07v-14.37h2.27v14.37c0,4.99-4.38,8.95-9.48,8.31"/>
    </g>
  </g>
</svg>